<svg xmlns="http://www.w3.org/2000/svg" xmlns:xlink="http://www.w3.org/1999/xlink" width="500" zoomAndPan="magnify" viewBox="0 0 375 374.999991" height="500" preserveAspectRatio="xMidYMid meet" version="1.0"><defs><g/><clipPath id="f7476b7574"><path d="M 115.226562 75.847656 L 259.976562 75.847656 L 259.976562 225.847656 L 115.226562 225.847656 Z M 115.226562 75.847656 " clip-rule="nonzero"/></clipPath></defs><rect x="-37.5" width="450" fill="#ffffff" y="-37.499999" height="449.999989" fill-opacity="1"/><rect x="-37.5" width="450" fill="#ffffff" y="-37.499999" height="449.999989" fill-opacity="1"/><rect x="-37.5" width="450" fill="#ffffff" y="-37.499999" height="449.999989" fill-opacity="1"/><path fill="#fffae7" d="M 257.304688 134.777344 L 257.304688 174.949219 L 254.632812 177.617188 L 251.960938 180.289062 L 246.585938 180.289062 L 246.585938 126.742188 L 243.914062 124.074219 L 238.539062 118.734375 L 235.867188 112.261719 L 227.820312 108.003906 L 222.445312 102.667969 L 211.726562 97.300781 L 201.007812 91.964844 L 198.335938 89.265625 L 176.898438 89.265625 L 174.195312 91.964844 L 163.476562 97.300781 L 152.757812 102.667969 L 147.382812 108.003906 L 139.367188 112.261719 L 136.664062 118.734375 L 131.320312 124.074219 L 128.617188 126.742188 L 128.617188 180.289062 L 123.273438 180.289062 L 120.601562 177.617188 L 117.898438 174.949219 L 117.898438 134.777344 L 120.601562 129.4375 L 123.273438 125.601562 L 123.273438 110.703125 L 125.945312 108.003906 L 131.320312 102.667969 L 136.664062 97.300781 L 147.382812 91.964844 L 158.132812 86.597656 L 168.851562 81.257812 L 174.195312 78.5625 L 201.007812 78.5625 L 206.382812 81.257812 L 217.101562 86.597656 L 227.820312 91.964844 L 238.539062 97.300781 L 243.914062 102.667969 L 249.257812 108.003906 L 251.960938 110.699219 L 251.960938 125.601562 L 254.632812 129.4375 Z M 142.039062 172.253906 L 136.664062 172.253906 L 136.664062 177.617188 L 141.949219 177.617188 L 141.949219 188.324219 L 147.324219 188.324219 L 147.324219 177.617188 L 142.039062 177.617188 Z M 147.355469 193.6875 L 152.726562 193.6875 L 152.726562 188.324219 L 147.355469 188.324219 Z M 233.195312 177.617188 L 238.570312 177.617188 L 238.570312 172.253906 L 233.195312 172.253906 Z M 222.445312 193.6875 L 227.820312 193.6875 L 227.820312 188.324219 L 222.445312 188.324219 Z M 227.820312 182.957031 L 227.820312 188.324219 L 233.195312 188.324219 L 233.195312 177.617188 L 227.820312 177.617188 Z M 227.820312 182.957031 " fill-opacity="1" fill-rule="nonzero"/><path fill="#a6a6a6" d="M 172.574219 201.695312 L 172.574219 196.328125 L 168.820312 193.660156 L 166.148438 188.292969 L 166.148438 185.625 L 163.476562 182.957031 L 161.675781 180.289062 L 161.675781 169.585938 L 158.101562 166.914062 L 155.429688 163.046875 L 155.429688 157.800781 L 152.757812 156.210938 L 150.085938 153.542969 L 145.523438 153.542969 L 142.039062 156.210938 L 138.617188 158.882812 L 128.617188 158.882812 L 128.617188 184.09375 L 131.289062 188.324219 L 147.414062 220.433594 L 150.085938 222.171875 L 166.179688 222.171875 L 168.851562 220.433594 L 174.226562 215.066406 L 176.898438 213.085938 L 176.898438 207.03125 L 174.226562 204.363281 Z M 147.324219 182.957031 L 147.324219 188.324219 L 141.949219 188.324219 L 141.949219 177.589844 L 136.664062 177.589844 L 136.664062 172.222656 L 142.039062 172.222656 L 142.039062 177.589844 L 147.324219 177.589844 Z M 152.726562 193.6875 L 147.355469 193.6875 L 147.355469 188.324219 L 152.726562 188.324219 Z M 236.585938 158.878906 L 233.164062 156.210938 L 229.683594 153.542969 L 225.117188 153.542969 L 222.445312 156.210938 L 219.773438 157.800781 L 219.773438 163.046875 L 217.101562 166.914062 L 213.527344 169.585938 L 213.527344 180.289062 L 211.726562 182.957031 L 209.054688 185.625 L 209.054688 188.292969 L 206.382812 193.660156 L 202.628906 196.328125 L 202.628906 201.695312 L 201.007812 204.363281 L 198.335938 207.03125 L 198.335938 213.085938 L 201.007812 215.066406 L 206.382812 220.433594 L 209.054688 222.171875 L 225.148438 222.171875 L 227.820312 220.433594 L 243.945312 188.324219 L 246.617188 184.09375 L 246.617188 158.878906 Z M 227.789062 193.6875 L 222.417969 193.6875 L 222.417969 188.324219 L 227.789062 188.324219 Z M 238.539062 177.617188 L 233.195312 177.617188 L 233.195312 188.324219 L 227.820312 188.324219 L 227.820312 177.589844 L 233.164062 177.589844 L 233.164062 172.253906 L 238.539062 172.253906 Z M 233.195312 177.589844 Z M 233.195312 177.589844 " fill-opacity="1" fill-rule="nonzero"/><g clip-path="url(#f7476b7574)"><path fill="#004aad" d="M 158.132812 97.300781 L 163.476562 97.300781 L 163.476562 102.667969 L 152.757812 102.667969 L 152.757812 97.300781 Z M 147.382812 108.003906 L 136.664062 108.003906 L 136.664062 118.734375 L 131.320312 118.734375 L 131.320312 124.074219 L 125.945312 124.074219 L 125.945312 108.03125 L 131.320312 108.03125 L 131.320312 102.667969 L 125.945312 102.667969 L 125.945312 108.003906 L 120.601562 108.003906 L 120.601562 129.4375 L 125.945312 129.4375 L 125.945312 177.617188 L 120.601562 177.617188 L 120.601562 182.957031 L 125.945312 182.957031 L 125.945312 188.324219 L 131.320312 188.324219 L 131.320312 199.027344 L 136.664062 199.027344 L 136.664062 209.730469 L 142.039062 209.730469 L 142.039062 220.433594 L 147.382812 220.433594 L 147.382812 225.796875 L 168.851562 225.796875 L 168.851562 220.460938 L 174.226562 220.460938 L 174.226562 215.09375 L 179.570312 215.09375 L 179.570312 204.390625 L 174.195312 204.390625 L 174.195312 215.09375 L 168.851562 215.09375 L 168.851562 220.433594 L 163.476562 220.433594 L 163.476562 215.09375 L 158.132812 215.09375 L 158.132812 209.730469 L 152.757812 209.730469 L 152.757812 199.027344 L 147.382812 199.027344 L 147.382812 188.324219 L 142.039062 188.324219 L 142.039062 177.617188 L 136.664062 177.617188 L 136.664062 172.253906 L 131.320312 172.253906 L 131.320312 161.550781 L 142.039062 161.550781 L 142.039062 156.210938 L 131.320312 156.210938 L 131.320312 124.101562 L 136.695312 124.101562 L 136.695312 118.734375 L 142.039062 118.734375 L 142.039062 113.371094 L 147.382812 113.371094 L 147.382812 108.003906 L 152.757812 108.03125 L 152.757812 102.667969 L 147.382812 102.667969 Z M 163.476562 91.964844 L 163.476562 97.300781 L 174.195312 97.300781 L 174.195312 91.964844 Z M 158.132812 91.964844 L 158.132812 86.597656 L 147.382812 86.597656 L 147.382812 91.964844 Z M 136.695312 97.300781 L 147.382812 97.300781 L 147.382812 91.964844 L 136.664062 91.964844 L 136.695312 97.300781 L 131.320312 97.300781 L 131.320312 102.667969 L 136.695312 102.667969 Z M 179.570312 81.257812 L 206.382812 81.257812 L 206.382812 75.894531 L 168.851562 75.894531 L 168.851562 81.257812 Z M 168.851562 86.597656 L 168.851562 81.257812 L 158.132812 81.257812 L 158.132812 86.597656 L 163.476562 86.597656 C 163.476562 86.597656 168.851562 86.597656 168.851562 86.597656 Z M 120.601562 166.914062 L 120.601562 129.4375 L 115.226562 129.4375 L 115.226562 177.617188 L 120.601562 177.617188 Z M 152.757812 156.210938 L 152.757812 150.847656 L 142.039062 150.847656 L 142.039062 156.210938 Z M 152.757812 166.914062 L 158.132812 166.914062 L 158.132812 156.210938 L 152.757812 156.210938 Z M 158.132812 177.617188 L 158.132812 182.957031 L 163.476562 182.957031 L 163.476562 166.914062 L 158.132812 166.914062 Z M 163.476562 193.6875 L 168.851562 193.6875 L 168.851562 182.957031 L 163.476562 182.957031 Z M 168.851562 204.390625 L 174.195312 204.390625 L 174.195312 193.6875 L 168.851562 193.6875 Z M 217.101562 97.300781 L 211.726562 97.300781 L 211.726562 102.667969 L 222.445312 102.667969 L 222.445312 97.300781 Z M 238.539062 108.003906 L 227.820312 108.003906 L 227.820312 102.667969 L 222.445312 102.667969 L 222.445312 108.03125 L 227.820312 108.03125 L 227.820312 113.371094 L 233.195312 113.371094 L 233.195312 118.734375 L 238.539062 118.734375 Z M 195.664062 86.597656 L 174.195312 86.597656 L 174.195312 91.964844 L 201.007812 91.964844 L 201.007812 86.597656 Z M 206.382812 91.964844 L 201.007812 91.964844 L 201.007812 97.300781 L 211.726562 97.300781 L 211.726562 91.964844 Z M 222.445312 91.964844 L 227.820312 91.964844 L 227.820312 86.597656 L 217.101562 86.597656 L 217.101562 91.964844 Z M 233.195312 97.300781 L 238.539062 97.300781 L 238.539062 91.964844 L 227.820312 91.964844 L 227.820312 97.300781 C 227.820312 97.300781 233.195312 97.300781 233.195312 97.300781 Z M 243.914062 102.667969 L 243.914062 97.300781 L 238.539062 97.300781 L 238.539062 102.667969 Z M 211.726562 86.597656 L 217.101562 86.597656 L 217.101562 81.257812 L 206.382812 81.257812 L 206.382812 86.597656 C 206.382812 86.597656 211.726562 86.597656 211.726562 86.597656 Z M 254.632812 129.4375 L 254.632812 177.617188 L 259.976562 177.617188 L 259.976562 129.4375 Z M 233.195312 156.210938 L 233.195312 150.847656 L 222.445312 150.847656 L 222.445312 156.210938 Z M 222.445312 161.550781 L 222.445312 156.210938 L 217.101562 156.210938 L 217.101562 166.914062 L 222.445312 166.914062 Z M 217.101562 177.617188 L 217.101562 166.914062 L 211.726562 166.914062 L 211.726562 182.957031 L 217.101562 182.957031 Z M 211.726562 188.324219 L 211.726562 182.957031 L 206.382812 182.957031 L 206.382812 193.6875 L 211.726562 193.6875 Z M 206.382812 199.027344 L 206.382812 193.6875 L 201.007812 193.6875 L 201.007812 204.390625 L 206.382812 204.390625 Z M 201.007812 204.390625 L 195.664062 204.390625 L 195.664062 215.09375 L 201.007812 215.09375 Z M 249.257812 172.253906 L 249.257812 129.4375 L 254.632812 129.4375 L 254.632812 108.003906 L 249.289062 108.003906 L 249.289062 102.667969 L 243.914062 102.667969 L 243.914062 108.03125 L 249.257812 108.03125 L 249.257812 124.074219 L 243.914062 124.074219 L 243.914062 118.734375 L 238.539062 118.734375 L 238.539062 124.101562 L 243.914062 124.101562 L 243.914062 156.210938 L 233.195312 156.210938 L 233.195312 161.550781 L 243.914062 161.550781 L 243.914062 172.253906 L 238.539062 172.253906 L 238.539062 177.617188 L 233.195312 177.617188 L 233.195312 188.324219 L 227.820312 188.324219 L 227.820312 199.027344 L 222.445312 199.027344 L 222.445312 209.730469 L 217.101562 209.730469 L 217.101562 215.09375 L 211.726562 215.09375 L 211.726562 220.433594 L 206.382812 220.433594 L 206.382812 215.09375 L 201.007812 215.09375 L 201.007812 220.460938 L 206.382812 220.460938 L 206.382812 225.796875 L 227.820312 225.796875 L 227.820312 220.433594 L 233.195312 220.433594 L 233.195312 209.730469 L 238.539062 209.730469 L 238.539062 199.027344 L 243.914062 199.027344 L 243.914062 188.324219 L 249.257812 188.324219 L 249.257812 182.957031 L 254.632812 182.957031 L 254.632812 177.617188 L 249.257812 177.617188 Z M 249.257812 172.253906 " fill-opacity="1" fill-rule="nonzero"/></g><g fill="#000000" fill-opacity="1"><g transform="translate(141.640851, 264.567287)"><g><path d="M 8.0625 -18.6875 L 7.609375 -18.6875 L 7.609375 0 L 2.453125 0 L 2.453125 -28.109375 L 9.703125 -28.109375 L 16.109375 -9.421875 L 16.5625 -9.421875 L 16.5625 -28.109375 L 21.71875 -28.109375 L 21.71875 0 L 14.46875 0 Z M 8.0625 -18.6875 "/></g></g></g><g fill="#000000" fill-opacity="1"><g transform="translate(164.155503, 264.567287)"><g><path d="M 17.359375 -12.53125 L 17.6875 -20.375 L 17.328125 -20.375 L 12.078125 -5.921875 L 6.84375 -20.375 L 6.484375 -20.375 L 6.8125 -12.53125 L 6.8125 0 L 1.578125 0 L 1.578125 -28.109375 L 8.703125 -28.109375 L 12.171875 -18.65625 L 12.484375 -18.65625 L 15.953125 -28.109375 L 22.59375 -28.109375 L 22.59375 0 L 17.359375 0 Z M 17.359375 -12.53125 "/></g></g></g><g fill="#000000" fill-opacity="1"><g transform="translate(186.670154, 264.567287)"><g><path d="M 8.0625 -18.6875 L 7.609375 -18.6875 L 7.609375 0 L 2.453125 0 L 2.453125 -28.109375 L 9.703125 -28.109375 L 16.109375 -9.421875 L 16.5625 -9.421875 L 16.5625 -28.109375 L 21.71875 -28.109375 L 21.71875 0 L 14.46875 0 Z M 8.0625 -18.6875 "/></g></g></g><g fill="#000000" fill-opacity="1"><g transform="translate(209.184804, 264.567287)"><g><path d="M 3.703125 0 L 3.703125 -28.109375 L 9.78125 -28.109375 L 9.78125 -4.953125 L 21.875 -4.953125 L 21.875 0 Z M 3.703125 0 "/></g></g></g></svg>